<svg width="43" height="43" viewBox="0 0 43 43" fill="none" xmlns="http://www.w3.org/2000/svg">
<circle cx="21.5" cy="14.3333" r="4.875" stroke="#222222" stroke-linecap="round"/>
<path d="M24.3247 11.4479C24.7182 10.7663 25.305 10.2168 26.0109 9.86869C26.7167 9.52061 27.5099 9.38965 28.2902 9.49237C29.0705 9.5951 29.8027 9.92689 30.3944 10.4458C30.9861 10.9647 31.4107 11.6474 31.6144 12.4076C31.8181 13.1678 31.7918 13.9713 31.5388 14.7166C31.2858 15.4618 30.8175 16.1153 30.1932 16.5944C29.5688 17.0735 28.8164 17.3567 28.031 17.4081C27.2457 17.4596 26.4628 17.2771 25.7812 16.8836" stroke="#222222"/>
<path d="M18.6753 11.4479C18.2818 10.7663 17.695 10.2168 16.9891 9.86869C16.2833 9.52061 15.4901 9.38965 14.7098 9.49237C13.9295 9.5951 13.1973 9.92689 12.6056 10.4458C12.0139 10.9647 11.5893 11.6474 11.3856 12.4076C11.1819 13.1678 11.2082 13.9713 11.4612 14.7166C11.7142 15.4618 12.1825 16.1153 12.8068 16.5944C13.4312 17.0735 14.1836 17.3567 14.969 17.4081C15.7543 17.4596 16.5372 17.2771 17.2188 16.8836" stroke="#222222"/>
<path d="M21.5 22.3958C29.5014 22.3958 31.0058 29.4834 31.2887 32.1486C31.347 32.6978 30.9065 33.1458 30.3542 33.1458H12.6459C12.0936 33.1458 11.6531 32.6978 11.7114 32.1486C11.9942 29.4834 13.4987 22.3958 21.5 22.3958Z" stroke="#222222" stroke-linecap="round"/>
<path d="M34.7636 28.472L35.2541 28.3752V28.3752L34.7636 28.472ZM23.4478 22.5498L23.0785 22.2126L22.4581 22.8922L23.3658 23.043L23.4478 22.5498ZM30.7832 29.5625L30.3029 29.7015L30.4074 30.0625H30.7832V29.5625ZM27.7709 21.1042C29.9991 21.1042 31.4915 22.3354 32.5094 23.9136C33.5353 25.5042 34.042 27.3991 34.2731 28.5689L35.2541 28.3752C35.0135 27.1571 34.4762 25.1181 33.3498 23.3716C32.2154 21.6129 30.4473 20.1042 27.7709 20.1042V21.1042ZM23.817 22.8869C24.775 21.8377 26.0477 21.1042 27.7709 21.1042V20.1042C25.7198 20.1042 24.1918 20.9933 23.0785 22.2126L23.817 22.8869ZM23.3658 23.043C27.705 23.7641 29.5273 27.0206 30.3029 29.7015L31.2635 29.4235C30.4388 26.5731 28.4183 22.8689 23.5297 22.0565L23.3658 23.043ZM33.8325 29.0625H30.7832V30.0625H33.8325V29.0625ZM34.2731 28.5689C34.3215 28.8143 34.1361 29.0625 33.8325 29.0625V30.0625C34.7121 30.0625 35.4349 29.2906 35.2541 28.3752L34.2731 28.5689Z" fill="#222222"/>
<path d="M19.5523 22.5498L19.6343 23.043L20.542 22.8922L19.9215 22.2126L19.5523 22.5498ZM8.23643 28.472L7.7459 28.3752L8.23643 28.472ZM12.2168 29.5625V30.0625H12.5927L12.6971 29.7015L12.2168 29.5625ZM15.2292 21.1042C16.9524 21.1042 18.2251 21.8377 19.1831 22.8869L19.9215 22.2126C18.8082 20.9933 17.2803 20.1042 15.2292 20.1042V21.1042ZM8.72695 28.5689C8.95799 27.3991 9.46474 25.5042 10.4906 23.9136C11.5086 22.3354 13.001 21.1042 15.2292 21.1042V20.1042C12.5528 20.1042 10.7846 21.6129 9.65028 23.3716C8.52383 25.118 7.98648 27.157 7.7459 28.3752L8.72695 28.5689ZM9.16751 29.0625C8.86388 29.0625 8.67849 28.8143 8.72695 28.5689L7.7459 28.3752C7.5651 29.2906 8.28789 30.0625 9.16751 30.0625V29.0625ZM12.2168 29.0625H9.16751V30.0625H12.2168V29.0625ZM12.6971 29.7015C13.4728 27.0206 15.2951 23.7641 19.6343 23.043L19.4703 22.0565C14.5817 22.8689 12.5612 26.5731 11.7365 29.4235L12.6971 29.7015Z" fill="#222222"/>
</svg>
