<svg width="43" height="43" viewBox="0 0 43 43" fill="none" xmlns="http://www.w3.org/2000/svg">
<path d="M10.75 19.5735C10.75 18.756 10.75 18.3473 10.9022 17.9797C11.0545 17.6122 11.3435 17.3232 11.9216 16.7451L14.9534 13.7132C15.5315 13.1352 15.8205 12.8462 16.1881 12.6939C16.5556 12.5417 16.9644 12.5417 17.7819 12.5417H25.2181C26.0356 12.5417 26.4444 12.5417 26.8119 12.6939C27.1795 12.8462 27.4685 13.1352 28.0466 13.7132L31.0784 16.7451C31.6565 17.3232 31.9455 17.6122 32.0978 17.9797C32.25 18.3473 32.25 18.756 32.25 19.5735V31.8333C32.25 33.719 32.25 34.6618 31.6642 35.2476C31.0784 35.8333 30.1356 35.8333 28.25 35.8333H14.75C12.8644 35.8333 11.9216 35.8333 11.3358 35.2476C10.75 34.6618 10.75 33.719 10.75 31.8333V19.5735Z" stroke="#222222"/>
<path d="M16.125 12.5417L10.8887 9.05078C10.8047 8.9948 10.6953 8.99479 10.6113 9.05078L5.62873 12.3725C5.49747 12.46 5.47908 12.6457 5.59063 12.7573L10.3789 17.5456C10.6165 17.7832 10.75 18.1054 10.75 18.4414V18.4414C10.75 19.1411 11.3172 19.7083 12.0169 19.7083H30.9831C31.6828 19.7083 32.25 19.1411 32.25 18.4414V18.4414C32.25 18.1054 32.3835 17.7832 32.6211 17.5456L37.4094 12.7573C37.5209 12.6457 37.5025 12.46 37.3713 12.3725L32.3887 9.05078C32.3047 8.99479 32.1953 8.9948 32.1113 9.05078L26.875 12.5417" stroke="#222222" stroke-linecap="round"/>
</svg>
