<svg width="100" height="100" viewBox="0 0 100 100" fill="none" xmlns="http://www.w3.org/2000/svg">
<path d="M20.5 13H79.5C81.3997 13 82.7743 13.0011 83.8225 13.142C84.8563 13.281 85.4975 13.5477 85.9749 14.0251C86.4523 14.5025 86.719 15.1437 86.858 16.1775C86.9989 17.2257 87 18.6002 87 20.5V79.5C87 81.3997 86.9989 82.7743 86.858 83.8225C86.719 84.8563 86.4523 85.4975 85.9749 85.9749C85.4975 86.4523 84.8563 86.719 83.8225 86.858C82.7743 86.9989 81.3997 87 79.5 87H20.5C18.6002 87 17.2257 86.9989 16.1775 86.858C15.1437 86.719 14.5025 86.4523 14.0251 85.9749C13.5477 85.4975 13.281 84.8563 13.142 83.8225C13.0011 82.7743 13 81.3997 13 79.5V20.5C13 18.6002 13.0011 17.2257 13.142 16.1775C13.281 15.1437 13.5477 14.5025 14.0251 14.0251C14.5025 13.5477 15.1437 13.281 16.1775 13.142C17.2257 13.0011 18.6002 13 20.5 13Z" stroke="#222222"/>
<path d="M50 33.3333L50 66.6667" stroke="#222222" stroke-linejoin="round"/>
<path d="M66.6667 50L33.3333 50" stroke="#222222" stroke-linejoin="round"/>
</svg>
