<svg width="40" height="40" viewBox="0 0 40 40" fill="none" xmlns="http://www.w3.org/2000/svg">
<path d="M15.8334 24.1667L15.8334 19.1667" stroke="#222222" stroke-linecap="round"/>
<path d="M24.1666 24.1667L24.1666 19.1667" stroke="#222222" stroke-linecap="round"/>
<path d="M5 10.8333H35H33.1667C31.281 10.8333 30.3382 10.8333 29.7525 11.4191C29.1667 12.0049 29.1667 12.9477 29.1667 14.8333V28.5C29.1667 30.3856 29.1667 31.3284 28.5809 31.9142C27.9951 32.5 27.0523 32.5 25.1667 32.5H14.8333C12.9477 32.5 12.0049 32.5 11.4191 31.9142C10.8333 31.3284 10.8333 30.3856 10.8333 28.5V14.8333C10.8333 12.9477 10.8333 12.0049 10.2475 11.4191C9.66176 10.8333 8.71895 10.8333 6.83333 10.8333H5Z" stroke="#222222" stroke-linecap="round"/>
<path d="M15.8333 5.83376C15.8333 5.83376 16.6666 4.16669 20 4.16669C23.3333 4.16669 24.1666 5.83335 24.1666 5.83335" stroke="#222222" stroke-linecap="round"/>
</svg>
