<svg width="43" height="43" viewBox="0 0 43 43" fill="none" xmlns="http://www.w3.org/2000/svg">
<path d="M18.8125 27.7708L17.0209 21.5" stroke="#222222" stroke-linecap="round"/>
<path d="M15.2292 11.6458L11.6459 17.0208M27.7709 11.6458L31.3542 17.0208" stroke="#222222" stroke-linecap="round"/>
<path d="M24.1875 27.7708L25.9792 21.5" stroke="#222222" stroke-linecap="round"/>
<path d="M8.0625 17.0208V17.0208C8.24003 17.0208 8.3288 17.0208 8.40753 17.0271C9.22568 17.0918 9.92125 17.6497 10.1619 18.4344C10.1851 18.5099 10.2043 18.5965 10.2428 18.7698L12.7414 30.0135C13.0751 31.5152 13.242 32.266 13.7904 32.7059C14.3388 33.1458 15.1079 33.1458 16.6462 33.1458H26.3538C27.8921 33.1458 28.6612 33.1458 29.2096 32.7059C29.758 32.266 29.9249 31.5152 30.2586 30.0135L32.7572 18.7698C32.7957 18.5965 32.8149 18.5099 32.8381 18.4344C33.0787 17.6497 33.7743 17.0918 34.5925 17.0271C34.6712 17.0208 34.76 17.0208 34.9375 17.0208V17.0208" stroke="#222222" stroke-linecap="round"/>
<path d="M6.27087 17.0208H36.7292" stroke="#222222" stroke-linecap="round"/>
</svg>
