<svg width="43" height="43" viewBox="0 0 43 43" fill="none" xmlns="http://www.w3.org/2000/svg">
<path d="M6.27087 8.0625H10.2044C10.9001 8.0625 11.2479 8.0625 11.5098 8.25126C11.7717 8.44002 11.8817 8.77003 12.1017 9.43004L13.4375 13.4375" stroke="#222222" stroke-linecap="round"/>
<path d="M31.3542 31.3542H14.4207C13.1545 31.3542 12.5214 31.3542 12.2221 30.9389C11.9227 30.5236 12.1233 29.9218 12.5246 28.7181V28.7181C12.9654 27.3955 13.1859 26.7342 13.7096 26.3567C14.2334 25.9792 14.9291 25.9792 16.3206 25.9792H25.9792" stroke="#222222" stroke-linecap="round" stroke-linejoin="round"/>
<path d="M27.2412 25.9792H17.8667C16.5875 25.9792 15.9479 25.9792 15.4469 25.6488C14.946 25.3185 14.694 24.7306 14.1901 23.5548L11.6463 17.6193C10.8368 15.7304 10.4321 14.786 10.8767 14.1118C11.3213 13.4375 12.3488 13.4375 14.4037 13.4375H31.5596C33.8586 13.4375 35.0082 13.4375 35.4417 14.1846C35.8753 14.9317 35.305 15.9298 34.1643 17.9259L30.7141 23.9637C30.1522 24.9471 29.8712 25.4388 29.4057 25.709C28.9401 25.9792 28.3738 25.9792 27.2412 25.9792Z" stroke="#222222" stroke-linecap="round"/>
<circle cx="30.4583" cy="35.8334" r="1.79167" fill="#222222"/>
<circle cx="16.125" cy="35.8334" r="1.79167" fill="#222222"/>
</svg>
