<svg width="60" height="60" viewBox="0 0 60 60" fill="none" xmlns="http://www.w3.org/2000/svg">
<path d="M8 15.5C8 13.6002 8.00106 12.2257 8.14199 11.1775C8.28098 10.1437 8.54772 9.50253 9.02513 9.02513C9.50253 8.54772 10.1437 8.28098 11.1775 8.14199C12.2257 8.00106 13.6002 8 15.5 8H44.5C46.3998 8 47.7743 8.00106 48.8225 8.14199C49.8563 8.28098 50.4975 8.54772 50.9749 9.02513C51.4523 9.50253 51.719 10.1437 51.858 11.1775C51.9989 12.2257 52 13.6002 52 15.5V44.5C52 46.3998 51.9989 47.7743 51.858 48.8225C51.719 49.8563 51.4523 50.4975 50.9749 50.9749C50.4975 51.4523 49.8563 51.719 48.8225 51.858C47.7743 51.9989 46.3998 52 44.5 52H15.5C13.6002 52 12.2257 51.9989 11.1775 51.858C10.1437 51.719 9.50253 51.4523 9.02513 50.9749C8.54772 50.4975 8.28098 49.8563 8.14199 48.8225C8.00106 47.7743 8 46.3998 8 44.5V15.5Z" stroke="#222222"/>
<path d="M30 20L30 40" stroke="#222222" stroke-linejoin="round"/>
<path d="M40 30L20 30" stroke="#222222" stroke-linejoin="round"/>
</svg>
