<svg width="70" height="70" viewBox="0 0 70 70" fill="none" xmlns="http://www.w3.org/2000/svg">
<rect width="70" height="70" rx="15" fill="#D8CBFF"/>
<path d="M30.625 45.2083L27.7083 35" stroke="#F79FF6" stroke-linecap="round"/>
<path d="M24.7916 18.9583L18.9583 27.7083M45.2083 18.9583L51.0416 27.7083" stroke="#F79FF6" stroke-linecap="round"/>
<path d="M39.375 45.2083L42.2917 35" stroke="#F79FF6" stroke-linecap="round"/>
<path d="M13.125 27.7083V27.7083C14.3782 27.7083 15.0049 27.7083 15.4878 28.0064C15.6276 28.0927 15.7562 28.1959 15.8708 28.3137C16.2666 28.7204 16.4025 29.3321 16.6744 30.5555L21.1789 50.8261C21.5126 52.3277 21.6795 53.0785 22.2279 53.5184C22.7763 53.9583 23.5454 53.9583 25.0837 53.9583H44.9163C46.4546 53.9583 47.2237 53.9583 47.7721 53.5184C48.3205 53.0785 48.4874 52.3277 48.8211 50.826L53.3256 30.5555C53.5975 29.3321 53.7334 28.7204 54.1292 28.3137C54.2438 28.1959 54.3724 28.0927 54.5122 28.0064C54.9951 27.7083 55.6218 27.7083 56.875 27.7083V27.7083" stroke="#F79FF6" stroke-linecap="round"/>
<path d="M10.2083 27.7083H59.7916" stroke="#F79FF6" stroke-linecap="round"/>
</svg>
