<svg width="70" height="70" viewBox="0 0 70 70" fill="none" xmlns="http://www.w3.org/2000/svg">
<rect width="70" height="70" rx="15" fill="#E36F6F"/>
<path d="M35.5 35L51.1534 46.0494C51.6843 46.4242 52 47.0335 52 47.6834V56.5C52 56.7761 51.7761 57 51.5 57H19.5C19.2239 57 19 56.7761 19 56.5V47.6834C19 47.0335 19.3157 46.4242 19.8466 46.0494L35.5 35ZM35.5 35L51.1534 23.9506C51.6843 23.5758 52 22.9665 52 22.3166V13.5C52 13.2239 51.7761 13 51.5 13H19.5C19.2239 13 19 13.2239 19 13.5V22.3166C19 22.9665 19.3157 23.5758 19.8466 23.9506L35.5 35Z" stroke="#FF9A9A" stroke-linecap="round" stroke-linejoin="round"/>
<path d="M45 57V52.9271C45 52.3589 44.679 51.8395 44.1708 51.5854L35.0671 47.0335C35.0249 47.0124 34.9751 47.0124 34.9329 47.0335L25.8292 51.5854C25.321 51.8395 25 52.3589 25 52.9271V57" stroke="#FF9A9A" stroke-linecap="round" stroke-linejoin="round"/>
</svg>
