<svg width="29" height="22" viewBox="0 0 29 22" fill="none" xmlns="http://www.w3.org/2000/svg">
<path d="M14.933 1.75L25.7583 20.5C25.9508 20.8333 25.7102 21.25 25.3253 21.25H3.67468C3.28978 21.25 3.04922 20.8333 3.24167 20.5L14.067 1.75C14.2594 1.41667 14.7406 1.41667 14.933 1.75Z" stroke="black"/>
<path d="M15.25 9.27273L15.1648 15.5455H14.1761L14.0909 9.27273H15.25ZM14.6705 18.0682C14.4602 18.0682 14.2798 17.9929 14.1293 17.8423C13.9787 17.6918 13.9034 17.5114 13.9034 17.3011C13.9034 17.0909 13.9787 16.9105 14.1293 16.7599C14.2798 16.6094 14.4602 16.5341 14.6705 16.5341C14.8807 16.5341 15.0611 16.6094 15.2116 16.7599C15.3622 16.9105 15.4375 17.0909 15.4375 17.3011C15.4375 17.4403 15.402 17.5682 15.331 17.6847C15.2628 17.8011 15.1705 17.8949 15.054 17.9659C14.9403 18.0341 14.8125 18.0682 14.6705 18.0682Z" fill="black"/>
</svg>
