<svg width="43" height="43" viewBox="0 0 43 43" fill="none" xmlns="http://www.w3.org/2000/svg">
<circle cx="21.5" cy="14.3333" r="4.875" stroke="#222222" stroke-linecap="round"/>
<path d="M24.3248 11.4479C24.7183 10.7663 25.3051 10.2168 26.0109 9.86867C26.7168 9.52059 27.51 9.38963 28.2902 9.49236C29.0705 9.59508 29.8028 9.92688 30.3945 10.4458C30.9862 10.9647 31.4107 11.6474 31.6144 12.4076C31.8181 13.1678 31.7918 13.9713 31.5388 14.7165C31.2859 15.4618 30.8176 16.1153 30.1932 16.5944C29.5688 17.0735 28.8164 17.3567 28.0311 17.4081C27.2458 17.4596 26.4628 17.277 25.7813 16.8835" stroke="#222222"/>
<path d="M18.6752 11.4479C18.2817 10.7663 17.6949 10.2168 16.9891 9.86867C16.2832 9.52059 15.49 9.38963 14.7098 9.49236C13.9295 9.59508 13.1972 9.92688 12.6055 10.4458C12.0138 10.9647 11.5893 11.6474 11.3856 12.4076C11.1819 13.1678 11.2082 13.9713 11.4612 14.7165C11.7141 15.4618 12.1824 16.1153 12.8068 16.5944C13.4312 17.0735 14.1836 17.3567 14.9689 17.4081C15.7542 17.4596 16.5372 17.277 17.2187 16.8835" stroke="#222222"/>
<path d="M21.5 22.3958C29.5013 22.3958 31.0058 29.4834 31.2886 32.1486C31.3469 32.6978 30.9064 33.1458 30.3541 33.1458H12.6458C12.0935 33.1458 11.653 32.6978 11.7113 32.1486C11.9942 29.4834 13.4986 22.3958 21.5 22.3958Z" stroke="#222222" stroke-linecap="round"/>
<path d="M34.7635 28.4721L34.273 28.5689L34.273 28.5689L34.7635 28.4721ZM23.4477 22.5498L23.0784 22.2126L22.458 22.8922L23.3657 23.043L23.4477 22.5498ZM30.7832 29.5625L30.3029 29.7015L30.4073 30.0625H30.7832V29.5625ZM27.7708 21.1042C29.999 21.1042 31.4914 22.3354 32.5094 23.9137C33.5352 25.5042 34.042 27.3991 34.273 28.5689L35.2541 28.3752C35.0135 27.1571 34.4762 25.1181 33.3497 23.3716C32.2154 21.6129 30.4472 20.1042 27.7708 20.1042V21.1042ZM23.8169 22.8869C24.7749 21.8377 26.0476 21.1042 27.7708 21.1042V20.1042C25.7197 20.1042 24.1918 20.9933 23.0784 22.2126L23.8169 22.8869ZM23.3657 23.043C27.7049 23.7641 29.5272 27.0206 30.3029 29.7015L31.2635 29.4236C30.4388 26.5731 28.4183 22.8689 23.5297 22.0565L23.3657 23.043ZM33.8325 29.0625H30.7832V30.0625H33.8325V29.0625ZM34.273 28.5689C34.3215 28.8143 34.1361 29.0625 33.8325 29.0625V30.0625C34.7121 30.0625 35.4349 29.2906 35.2541 28.3752L34.273 28.5689Z" fill="#222222"/>
<path d="M19.5523 22.5498L19.6343 23.043L20.542 22.8922L19.9215 22.2126L19.5523 22.5498ZM8.23643 28.472L8.72695 28.5689L8.23643 28.472ZM12.2168 29.5625V30.0625H12.5927L12.6971 29.7015L12.2168 29.5625ZM15.2292 21.1042C16.9524 21.1042 18.2251 21.8377 19.1831 22.8869L19.9215 22.2126C18.8082 20.9933 17.2803 20.1042 15.2292 20.1042V21.1042ZM8.72695 28.5689C8.95799 27.3991 9.46474 25.5042 10.4906 23.9137C11.5086 22.3354 13.001 21.1042 15.2292 21.1042V20.1042C12.5528 20.1042 10.7846 21.6129 9.65028 23.3716C8.52383 25.1181 7.98648 27.1571 7.7459 28.3752L8.72695 28.5689ZM9.16751 29.0625C8.86388 29.0625 8.67849 28.8143 8.72695 28.5689L7.7459 28.3752C7.5651 29.2906 8.28789 30.0625 9.16751 30.0625V29.0625ZM12.2168 29.0625H9.16751V30.0625H12.2168V29.0625ZM12.6971 29.7015C13.4728 27.0206 15.2951 23.7641 19.6343 23.043L19.4703 22.0565C14.5817 22.8689 12.5612 26.5731 11.7365 29.4236L12.6971 29.7015Z" fill="#222222"/>
</svg>
